<svg width="39" height="40" viewBox="0 0 39 40" fill="none" xmlns="http://www.w3.org/2000/svg">
<path d="M28.2439 40H11.8082C10.839 40 10.0505 39.2114 10.0505 38.2423V37.4544C5.94612 35.562 1.58968 29.9476 1.58968 26.4438C1.58968 25.4747 2.37823 24.6861 3.34738 24.6861H6.00674C6.33039 24.6861 6.59264 24.9484 6.59264 25.272C6.59264 25.5957 6.33039 25.8579 6.00674 25.8579H3.34738C3.02428 25.8579 2.76148 26.1207 2.76148 26.4438C2.76148 27.844 3.74408 29.9666 5.32577 31.983C6.94692 34.0498 8.96757 35.7241 10.7535 36.4846H22.8442C23.1678 36.4846 23.4301 36.7468 23.4301 37.0705C23.4301 37.3941 23.1678 37.6564 22.8442 37.6564H11.2223V38.2423C11.2223 38.5654 11.4851 38.8282 11.8082 38.8282H28.2439C28.567 38.8282 28.8298 38.5654 28.8298 38.2423V37.6564H25.1879C24.8643 37.6564 24.602 37.3941 24.602 37.0705C24.602 36.7468 24.8643 36.4846 25.1879 36.4846H29.2985C31.0844 35.7241 33.1052 34.0498 34.7263 31.983C36.3079 29.9665 37.2905 27.844 37.2905 26.4438C37.2905 26.1207 37.0277 25.8579 36.7046 25.8579H30.0206L28.5394 27.3392C28.4294 27.4491 28.2805 27.5108 28.125 27.5108C27.9695 27.5108 27.8207 27.4491 27.7107 27.3392L25.0424 24.6709C24.8136 24.442 24.8136 24.071 25.0424 23.8423C25.2713 23.6135 25.6422 23.6135 25.871 23.8423L28.125 26.0963L29.869 24.3522C29.9797 24.2416 30.0407 24.0945 30.0407 23.938C30.0407 23.7814 29.9797 23.6343 29.869 23.5237L26.7864 20.441L20.4852 26.7423L23.5678 29.8249C23.7962 30.0535 24.168 30.0534 24.3963 29.8249L24.8107 29.4106L22.5566 27.1566C22.3277 26.9277 22.3277 26.5568 22.5565 26.328C22.7854 26.0992 23.1564 26.0992 23.3851 26.328L25.6392 28.582L26.0701 28.1511C26.299 27.9222 26.6699 27.9224 26.8987 28.1511C27.1275 28.3799 27.1275 28.7509 26.8987 28.9797L25.2249 30.6535C24.8929 30.9855 24.4515 31.1683 23.982 31.1683C23.5124 31.1683 23.071 30.9855 22.739 30.6535L19.586 27.5004C19.0254 27.7693 18.3477 27.7264 17.8139 27.3494L15.7018 25.8578C15.6984 25.8578 15.6949 25.8578 15.6914 25.8578H15.3234C14.3543 25.8578 13.5657 26.6464 13.5657 27.6155V30.8539C13.5657 31.3321 13.3672 31.7957 13.0211 32.1258C12.6701 32.4606 12.2103 32.6328 11.7237 32.6095C10.7853 32.5654 10.0503 31.7796 10.0503 30.8208V25.8578H8.35019C8.02653 25.8578 7.76429 25.5956 7.76429 25.2719C7.76429 24.9483 8.02653 24.686 8.35019 24.686H14.0427L13.5359 24.328C12.961 23.9221 12.6842 23.215 12.8306 22.5266L13.5845 18.9823C13.909 17.4559 13.4441 15.8857 12.3406 14.7823L0.553811 2.99557C0.215708 2.65738 0.0282203 2.18921 0.0395476 1.71104C0.0509532 1.22607 0.255315 0.778755 0.614823 0.451667C1.30962 -0.180714 2.38487 -0.144935 3.06302 0.533146L14.8266 12.2967C15.93 13.4002 17.5004 13.8653 19.0266 13.5405C19.3429 13.4731 19.6542 13.6752 19.7216 13.9917C19.7888 14.3082 19.5869 14.6193 19.2704 14.6866C17.3545 15.0944 15.3832 14.5104 13.9979 13.1253L2.23441 1.36176C2.00356 1.13076 1.63077 1.11131 1.40352 1.31825C1.28322 1.4277 1.21486 1.57706 1.21103 1.73862C1.20721 1.9004 1.26806 2.05258 1.38243 2.16695L13.1694 13.9538C14.5546 15.339 15.1383 17.31 14.7308 19.2262L13.9769 22.7705C13.9281 23 14.0204 23.2356 14.212 23.371L18.4901 26.3923C18.7239 26.5573 19.0402 26.5304 19.2425 26.328L26.3722 19.1981C26.5746 18.9959 26.6016 18.6795 26.4365 18.4458L23.4152 14.1678C23.2799 13.9763 23.0443 13.8838 22.8147 13.9328L21.7121 14.1672C21.3958 14.2343 21.0846 14.0325 21.0172 13.716C20.9499 13.3995 21.1519 13.0884 21.4684 13.021L22.5709 12.7866C23.2591 12.6399 23.9662 12.917 24.3723 13.4918L27.3936 17.7698C27.7706 18.3036 27.8135 18.9812 27.5447 19.542L30.6977 22.695C31.2353 23.2326 31.3511 24.0344 31.0454 24.686H36.7046C37.6738 24.686 38.4623 25.4746 38.4623 26.4437C38.4623 29.9475 34.1059 35.5619 30.0015 37.4544V38.2422C30.0016 39.2115 29.2131 40 28.2439 40ZM11.2223 25.8579V30.8209C11.2223 31.1473 11.472 31.4247 11.779 31.4391C11.9411 31.4472 12.0954 31.3896 12.2125 31.278C12.3296 31.1663 12.3941 31.0157 12.3941 30.8539V27.6155C12.3941 26.9566 12.6128 26.3477 12.9814 25.8578H11.2223V25.8579Z" fill="#156778"/>
</svg>
