<svg width="29" height="40" viewBox="0 0 29 40" fill="none" xmlns="http://www.w3.org/2000/svg">
<path d="M14.5007 40C13.3339 40 12.1679 39.6644 11.1544 38.994C8.25429 37.0756 6.17752 34.9906 4.80545 32.6201C3.46815 30.3096 2.75782 27.6712 2.64352 24.5781C-0.763747 20.1193 -0.799451 13.9043 2.57844 9.39555C3.52292 8.13497 4.67428 7.0776 6.00072 6.25281L9.33213 4.18128C9.8412 1.79528 11.9655 0 14.5012 0C15.8354 0 17.1097 0.498841 18.0893 1.40464L23.3235 6.24438C23.5611 6.46407 23.5756 6.83478 23.3559 7.07244C23.1361 7.31003 22.7654 7.32456 22.5278 7.10487L17.2937 2.26514C16.5313 1.56012 15.5395 1.1719 14.5012 1.1719C12.2333 1.1719 10.3882 3.01703 10.3882 5.28506C10.3882 6.0425 10.5955 6.78252 10.9879 7.42511C11.1565 7.70129 11.0694 8.06192 10.7932 8.2306C10.5169 8.3992 10.1564 8.31201 9.98777 8.03583C9.54229 7.30628 9.2822 6.4797 9.22728 5.62663L6.61964 7.24807C5.41734 7.99567 4.37325 8.9546 3.51644 10.0983C3.51487 10.1003 3.51339 10.1023 3.5119 10.1043C3.51097 10.1056 3.5098 10.1071 3.50886 10.1084C3.50831 10.1092 3.50792 10.1096 3.50737 10.1103C0.807542 13.7239 0.522534 18.5512 2.63009 22.4124C2.6754 20.2566 3.27838 17.7576 6.78519 15.3116C7.81756 14.5915 11.1147 12.4122 13.4318 10.8906C12.8595 10.519 12.2573 10.1287 11.6239 9.71892C11.3522 9.54313 11.2744 9.18039 11.4502 8.90866C11.6259 8.63686 11.9888 8.55912 12.2605 8.73499C17.3019 11.9966 20.3726 14.0249 22.2173 15.3116C25.7242 17.7576 26.3272 20.2565 26.3725 22.4123C28.4821 18.5467 28.1941 13.7128 25.486 10.0982C25.0685 9.54095 24.6165 9.03609 24.1425 8.5978C23.9049 8.3781 23.8904 8.00739 24.1101 7.76973C24.3298 7.53207 24.7005 7.51753 24.9381 7.73731C25.4641 8.22372 25.964 8.78155 26.424 9.39547C29.7983 13.8994 29.7646 20.1211 26.3587 24.5784C26.2118 28.4949 25.0964 31.7364 22.9616 34.4638C22.7622 34.7186 22.3939 34.7636 22.1391 34.5641C21.8842 34.3646 21.8394 33.9963 22.0388 33.7416C24.198 30.983 25.2036 27.7838 25.2036 23.6733V22.7003C25.2036 20.6866 24.7606 18.5141 21.547 16.2727C20.094 15.2592 17.8697 13.7789 14.5049 11.5881C11.7678 13.3832 8.42351 15.5977 7.45567 16.2727C4.24208 18.5142 3.7991 20.6866 3.7991 22.7003V23.6733C3.7991 26.9492 4.46013 29.6836 5.81993 32.033C7.0991 34.2431 9.05564 36.2003 11.8012 38.0165C13.4174 39.0857 15.5152 39.0997 17.1458 38.0524L17.2076 38.0126C18.586 37.1007 19.6433 36.2738 20.529 35.4143C20.7612 35.1889 21.1322 35.1944 21.3575 35.4266C21.5829 35.6589 21.5774 36.0298 21.3452 36.2551C20.406 37.1666 19.2948 38.0369 17.8482 38.9939L17.7798 39.038C16.7807 39.6797 15.6403 39.9999 14.5007 40ZM14.5012 36.4208C13.5289 36.4208 12.6891 36.1722 11.8582 35.6387C11.5859 35.4639 11.5069 35.1014 11.6818 34.829C11.8568 34.5567 12.2192 34.4778 12.4915 34.6526C13.1336 35.065 13.7534 35.2489 14.5012 35.2489C15.249 35.2489 15.8689 35.065 16.5109 34.6527C16.7833 34.4779 17.1457 34.5569 17.3206 34.8291C17.4955 35.1014 17.4165 35.4639 17.1442 35.6388C16.3134 36.1722 15.4735 36.4208 14.5012 36.4208ZM16.7404 33.4682H12.261C11.3283 33.4682 10.4227 33.0732 9.77643 32.3844C9.55502 32.1484 9.56674 31.7776 9.80276 31.5562C10.0388 31.3348 10.4096 31.3465 10.631 31.5825C11.0566 32.0361 11.6507 32.2963 12.2609 32.2963H16.7404C17.3512 32.2963 17.9457 32.0361 18.3713 31.5825C18.5928 31.3466 18.9636 31.3349 19.1996 31.5562C19.4356 31.7776 19.4474 32.1485 19.2259 32.3845C18.5798 33.0732 17.6738 33.4682 16.7404 33.4682ZM14.5012 30.5413C12.7796 30.5413 11.9756 29.3003 11.9423 29.2474C11.7695 28.9739 11.8511 28.6119 12.1246 28.439C12.3966 28.267 12.7561 28.3469 12.9301 28.6168C12.9573 28.6574 13.4496 29.3693 14.5013 29.3693C15.5672 29.3693 16.065 28.6288 16.0697 28.6213C16.2426 28.3477 16.6046 28.2661 16.8781 28.439C17.1516 28.6119 17.2333 28.9738 17.0604 29.2474C17.0268 29.3004 16.2228 30.5413 14.5012 30.5413ZM19.9339 26.9448C17.5934 26.9448 15.6894 25.0407 15.6894 22.7003C15.6894 20.36 17.5935 18.4559 19.9339 18.4559C22.2742 18.4559 24.1784 20.3599 24.1784 22.7003C24.1784 25.0408 22.2743 26.9448 19.9339 26.9448ZM19.9339 19.6278C18.2396 19.6278 16.8613 21.0062 16.8613 22.7003C16.8613 24.3946 18.2397 25.7729 19.9339 25.7729C21.6281 25.7729 23.0065 24.3945 23.0065 22.7003C23.0065 21.0062 21.6281 19.6278 19.9339 19.6278ZM9.06853 26.9448C6.72808 26.9448 4.82405 25.0407 4.82405 22.7003C4.82405 20.36 6.72808 18.4559 9.06853 18.4559C11.409 18.4559 13.313 20.3599 13.313 22.7003C13.313 25.0408 11.409 26.9448 9.06853 26.9448ZM9.06853 19.6278C7.37427 19.6278 5.99595 21.0062 5.99595 22.7003C5.99595 24.3946 7.37427 25.7729 9.06853 25.7729C10.7628 25.7729 12.1411 24.3945 12.1411 22.7003C12.1411 21.0062 10.7628 19.6278 9.06853 19.6278ZM19.9339 24.601C19.6103 24.601 19.3479 24.3387 19.3479 24.0151V23.7982C19.3479 23.4746 19.6103 23.2122 19.9339 23.2122C20.2575 23.2122 20.5198 23.4746 20.5198 23.7982V24.0151C20.5198 24.3387 20.2576 24.601 19.9339 24.601ZM9.06853 24.601C8.74492 24.601 8.48257 24.3387 8.48257 24.0151V23.7982C8.48257 23.4746 8.74492 23.2122 9.06853 23.2122C9.39213 23.2122 9.65448 23.4746 9.65448 23.7982V24.0151C9.65448 24.3387 9.39213 24.601 9.06853 24.601ZM10.0198 22.7375C9.8173 22.7375 9.62042 22.6325 9.5119 22.4445C9.35002 22.1642 9.44604 21.8059 9.72628 21.6441L9.91402 21.5356C10.1942 21.3738 10.5526 21.4697 10.7145 21.75C10.8764 22.0302 10.7804 22.3886 10.5001 22.5504L10.3124 22.6589C10.22 22.7121 10.1193 22.7375 10.0198 22.7375ZM20.8851 22.7375C20.6826 22.7375 20.4857 22.6325 20.3772 22.4445C20.2154 22.1642 20.3114 21.8059 20.5916 21.6441L20.7794 21.5356C21.0596 21.3739 21.4181 21.4698 21.5799 21.7501C21.7417 22.0303 21.6456 22.3887 21.3654 22.5505L21.1776 22.6589C21.0854 22.7121 20.9846 22.7375 20.8851 22.7375ZM18.9826 22.7375C18.8832 22.7375 18.7824 22.7122 18.6902 22.6589L18.5024 22.5505C18.2221 22.3887 18.1261 22.0303 18.2879 21.7501C18.4497 21.4698 18.808 21.3737 19.0883 21.5356L19.2761 21.6441C19.5564 21.8059 19.6524 22.1642 19.4906 22.4445C19.3821 22.6325 19.1851 22.7375 18.9826 22.7375ZM8.11725 22.7375C8.01788 22.7375 7.91709 22.7122 7.82482 22.6589L7.63701 22.5505C7.35677 22.3887 7.26075 22.0303 7.42255 21.7501C7.58435 21.4698 7.94264 21.3737 8.22296 21.5356L8.41078 21.6441C8.69102 21.8059 8.78704 22.1642 8.62523 22.4445C8.51672 22.6325 8.31976 22.7375 8.11725 22.7375Z" fill="#156778"/>
</svg>
