<svg width="36" height="40" viewBox="0 0 36 40" fill="none" xmlns="http://www.w3.org/2000/svg">
<path d="M25.6753 40C25.4701 40 25.2749 39.8917 25.1683 39.7076C25.0352 39.4779 25.0734 39.1874 25.2611 38.9996C28.4214 35.8393 29.8934 32.0867 29.8934 27.1898C29.8934 26.8661 30.1557 26.6039 30.4793 26.6039C30.8029 26.6039 31.0652 26.8661 31.0652 27.1898C31.0652 31.5128 29.9212 35.1174 27.5786 38.1424C30.0978 37.0722 31.9777 35.4231 33.0755 33.3002C34.4191 30.7021 34.6074 27.3993 33.62 23.7489L29.997 10.3544C29.9562 10.2039 29.9772 10.0434 30.0552 9.90834C30.1331 9.77326 30.2617 9.67498 30.4124 9.63498C30.7251 9.55201 31.0476 9.73803 31.1305 10.0508C31.134 10.0642 31.137 10.0776 31.1397 10.0911L34.7512 23.4429C35.8165 27.381 35.5969 30.9757 34.1165 33.8384C32.5827 36.8042 29.7168 38.9278 25.8284 39.9795C25.7775 39.9934 25.7262 40 25.6753 40ZM10.3259 40C10.2751 40 10.2237 39.9934 10.1728 39.9796C6.2845 38.9278 3.41857 36.8042 1.88482 33.8385C0.404353 30.9757 0.184823 27.381 1.25006 23.443L4.85716 10.1075C4.86036 10.0876 4.86458 10.0676 4.86989 10.0479C6.46622 4.13187 11.8657 0 18.0006 0C20.6346 0 23.1899 0.754217 25.3902 2.18109C27.5331 3.5707 29.2377 5.52468 30.3196 7.8317C30.457 8.12467 30.3309 8.47365 30.0379 8.611C29.7448 8.74873 29.396 8.6224 29.2586 8.32936C28.2698 6.22077 26.7116 4.43468 24.7526 3.16445C22.7426 1.86086 20.4078 1.17187 18.0006 1.17187C12.414 1.17187 7.49489 4.9203 6.01692 10.2955C6.01372 10.3152 6.0095 10.3349 6.00426 10.3544L2.38122 23.7489C1.3938 27.3993 1.58209 30.7021 2.92568 33.3002C4.02357 35.4232 5.90341 37.0722 8.42262 38.1424C6.07997 35.1173 4.93599 31.5128 4.93599 27.1898C4.93599 26.8661 5.19833 26.6039 5.52192 26.6039C5.84552 26.6039 6.10786 26.8661 6.10786 27.1898C6.10786 32.0867 7.57981 35.8393 10.7401 38.9996C10.9278 39.1873 10.9659 39.4778 10.8329 39.7076C10.7263 39.8917 10.5311 40 10.3259 40ZM22.1598 39.9999C22.0099 39.9999 21.8599 39.9427 21.7455 39.8284C21.5167 39.5994 21.5167 39.2285 21.7455 38.9997C23.5313 37.214 24.7778 35.2393 25.5245 32.9757C24.0033 32.3556 22.1477 31.9379 20.128 31.7631C19.8056 31.7353 19.5668 31.4513 19.5947 31.1289C19.6226 30.8066 19.9065 30.5675 20.229 30.5957C22.3133 30.776 24.2431 31.2055 25.8504 31.8438C26.2049 30.4122 26.3777 28.8682 26.3777 27.19V12.6412C26.3777 11.2311 26.0999 9.86436 25.5699 8.60334C24.9389 11.6153 22.8749 14.1674 19.9652 15.3807L9.62356 19.6932V24.2455C9.62356 24.5692 9.36121 24.8314 9.03762 24.8314C8.71403 24.8314 8.45168 24.5692 8.45168 24.2455V19.3161C8.45153 19.3074 8.45153 19.2985 8.45168 19.2897V12.6411C8.45168 9.54631 9.65527 6.63827 11.8408 4.45273C12.0696 4.22398 12.4407 4.22398 12.6694 4.45273C12.8982 4.68163 12.8982 5.05257 12.6694 5.2814C10.7053 7.24553 9.62356 9.85928 9.62356 12.6411V18.4234L12.4671 17.2376C14.6662 16.3172 16.5137 14.7964 17.8107 12.839C19.1031 10.8887 19.7861 8.60256 19.7861 6.22788C19.7861 5.90421 20.0485 5.64194 20.3721 5.64194C20.6956 5.64194 20.958 5.90421 20.958 6.22788C20.958 8.83365 20.2075 11.3435 18.7877 13.4863C18.3959 14.0775 17.9588 14.6322 17.4804 15.1472L19.5142 14.2991C22.5485 13.0337 24.5329 10.1051 24.5989 6.81311C24.23 6.26913 23.8067 5.75632 23.3319 5.28147C23.1031 5.05257 23.1031 4.68163 23.3319 4.4528C23.5607 4.22405 23.9317 4.22405 24.1605 4.4528C26.346 6.63835 27.5496 9.54631 27.5496 12.6412V27.1898C27.5496 32.3462 25.9221 36.4803 22.5741 39.8283C22.4597 39.9427 22.3097 39.9999 22.1598 39.9999ZM13.8414 39.9999C13.6915 39.9999 13.5415 39.9427 13.4271 39.8284C10.0792 36.4804 8.4516 32.3463 8.4516 27.1899C8.4516 26.8662 8.71395 26.6039 9.03754 26.6039C9.36113 26.6039 9.62348 26.8662 9.62348 27.1899C9.62348 28.8681 9.79637 30.412 10.1508 31.8436C12.3332 30.9763 15.0878 30.5017 17.9854 30.5H17.9857C18.3092 30.5 18.5715 30.762 18.5717 31.0856C18.5718 31.4092 18.3096 31.6717 17.986 31.6719C15.1838 31.6735 12.5376 32.1347 10.4766 32.9756C11.2232 35.2393 12.4699 37.214 14.2557 38.9997C14.4845 39.2286 14.4845 39.5995 14.2557 39.8284C14.1414 39.9427 13.9914 39.9999 13.8414 39.9999Z" fill="#156778"/>
</svg>
