<svg width="41" height="36" viewBox="0 0 41 36" fill="none" xmlns="http://www.w3.org/2000/svg">
<path d="M34.0617 35.8809C33.6116 35.8809 33.1615 35.7095 32.8188 35.3669L21.0973 23.6454C20.876 23.4241 20.7541 23.1298 20.7541 22.8168C20.7541 22.5038 20.876 22.2095 21.0973 21.9882L16.6803 17.5712C16.5827 17.4735 16.4895 17.3726 16.4006 17.2686C10.5548 16.6362 5.43125 12.948 2.96375 7.59406C2.13102 7.16555 1.36016 6.61094 0.67586 5.94031C0.444688 5.71383 0.440938 5.34289 0.667501 5.11172C0.894063 4.88055 1.26508 4.87687 1.49602 5.10336C2.27766 5.8693 3.18867 6.46242 4.18086 6.86336L9.0593 1.98672C10.2654 0.781094 11.8688 0.117188 13.5741 0.117188H20.5304C20.8541 0.117188 21.1163 0.379531 21.1163 0.703125C21.1163 1.02672 20.8541 1.28906 20.5304 1.28906H13.5741C12.1817 1.28906 10.8726 1.83117 9.88781 2.81555L5.44266 7.25898C6.0532 7.39805 6.68445 7.46953 7.32703 7.46953H7.33188C9.56242 7.46828 11.6527 6.8232 13.2174 5.65312C13.4254 5.49758 13.7112 5.4975 13.9191 5.65312C16.293 7.4282 20.1552 7.4282 22.5291 5.65312C22.737 5.49758 23.0228 5.49758 23.2308 5.65312C24.7973 6.82445 26.8891 7.46953 29.1211 7.46953C29.7637 7.46953 30.395 7.39805 31.0055 7.25898L26.5604 2.81555C25.5757 1.83117 24.2666 1.28906 22.8741 1.28906C22.5505 1.28906 22.2882 1.02672 22.2882 0.703125C22.2882 0.379531 22.5505 0.117188 22.8741 0.117188C24.5795 0.117188 26.1829 0.781172 27.3889 1.98672L32.2673 6.86336C33.2596 6.4625 34.1706 5.8693 34.9521 5.10344C35.1832 4.87695 35.5542 4.88055 35.7807 5.1118C36.0072 5.34289 36.0035 5.71391 35.7723 5.94039C35.088 6.61102 34.3173 7.16555 33.4845 7.59406C32.077 10.6498 29.8127 13.1868 26.9269 14.9386C26.6504 15.1065 26.29 15.0184 26.122 14.7417C25.9541 14.4651 26.0422 14.1048 26.3188 13.9368C28.6328 12.5322 30.5171 10.5853 31.8319 8.25461C30.9638 8.50945 30.0527 8.64141 29.1211 8.64141C26.7977 8.64141 24.5984 8.00398 22.8771 6.83922C21.582 7.68734 19.9476 8.15039 18.2241 8.15039C16.5005 8.15039 14.8662 7.68734 13.571 6.83922C11.8515 8.00273 9.65422 8.64016 7.33242 8.64141C7.33078 8.64141 7.32859 8.64141 7.32695 8.64141C6.39586 8.64141 5.48555 8.50961 4.61773 8.25508C6.92289 12.3295 10.9575 15.1772 15.5698 15.9698C14.7266 14.1607 14.8409 12.0619 15.7604 11.1423C16.9746 9.92812 20.245 10.1179 22.1893 12.0622L26.6063 16.4792C27.0634 16.0224 27.8069 16.0224 28.2636 16.4792L30.2384 18.4541C30.4673 18.6829 30.4673 19.0539 30.2384 19.2827C30.0095 19.5114 29.6386 19.5115 29.4098 19.2827L27.435 17.3079L21.926 22.8169L27.0184 27.9092L32.5274 22.4002L30.9723 20.8452C30.7435 20.6163 30.7435 20.2453 30.9723 20.0166C31.2013 19.7877 31.5723 19.7877 31.801 20.0166L39.9851 28.2006C40.317 28.5326 40.4999 28.974 40.4999 29.4436C40.4999 29.9131 40.317 30.3545 39.985 30.6866L35.3048 35.3669C34.962 35.7095 34.512 35.8809 34.0617 35.8809ZM29.5042 30.3951L33.6474 34.5383C33.8759 34.7668 34.2477 34.7666 34.4761 34.5383L39.1563 29.858C39.267 29.7473 39.328 29.6002 39.328 29.4437C39.328 29.2872 39.267 29.1401 39.1564 29.0294L35.0132 24.8862L29.5042 30.3951ZM27.847 28.7377L28.6755 29.5664L34.1846 24.0573L33.356 23.2288L27.847 28.7377ZM18.0407 11.5434C17.3995 11.5434 16.8644 11.6955 16.5891 11.9709C15.8635 12.6965 15.9932 15.2269 17.5089 16.7425L21.9259 21.1595L25.7777 17.3078L21.3606 12.8908C20.4202 11.9503 19.0889 11.5434 18.0407 11.5434Z" fill="#156778"/>
</svg>
