<svg width="41" height="40" viewBox="0 0 41 40" fill="none" xmlns="http://www.w3.org/2000/svg">
<path d="M32.2858 40C31.9937 40 31.7408 39.7817 31.7049 39.4844L31.4261 37.1808C31.3872 36.8596 31.6161 36.5675 31.9373 36.5287C32.2577 36.49 32.5506 36.7187 32.5894 37.0399L32.8682 39.3435C32.9072 39.6648 32.6782 39.9568 32.357 39.9956C32.3332 39.9985 32.3093 40 32.2858 40ZM8.21408 40C8.19056 40 8.16689 39.9985 8.14291 39.9956C7.82166 39.9568 7.59275 39.6649 7.63166 39.3435L8.51837 32.0177L6.6787 23.4175C6.61104 23.1011 6.81268 22.7897 7.12909 22.722C7.44541 22.6543 7.75697 22.8558 7.82463 23.1724L9.68485 31.8684C9.69844 31.9319 9.70133 31.997 9.69352 32.0615L8.79501 39.4845C8.75907 39.7817 8.50626 40 8.21408 40ZM20.2496 37.6964C20.1663 37.6964 20.0817 37.6785 20.0012 37.6409L18.7627 37.0601C18.4696 36.9227 18.3435 36.5738 18.4809 36.2808C18.6183 35.9877 18.9671 35.8615 19.2602 35.999L20.4987 36.5798C20.7917 36.7172 20.9178 37.0661 20.7805 37.3591C20.6808 37.5717 20.4698 37.6964 20.2496 37.6964ZM31.7387 35.4804C31.4466 35.4804 31.1937 35.2621 31.1578 34.9647L30.8064 32.0613C30.7986 31.9969 30.8015 31.9317 30.8151 31.8683L34.9819 12.3889C35.0202 12.2097 35.1402 12.0587 35.3061 11.9809L39.4151 10.0544C39.708 9.91701 40.0569 10.0431 40.1944 10.3361C40.3317 10.6291 40.2056 10.978 39.9126 11.1154L36.0671 12.9185L31.9816 32.0177L32.3212 34.8239C32.3601 35.1452 32.1312 35.4372 31.81 35.4761C31.7861 35.4789 31.7622 35.4804 31.7387 35.4804ZM20.25 35.099C19.9263 35.099 19.6641 34.8368 19.6641 34.5131V34.2015L18.7627 33.779C18.4697 33.6415 18.3436 33.2926 18.4809 32.9997C18.6184 32.7065 18.9672 32.5804 19.2602 32.7179L19.7061 32.9269C19.7926 32.7114 20.0036 32.5592 20.2501 32.5592C20.5737 32.5592 20.836 32.8215 20.836 33.1451V34.5132C20.8359 34.8368 20.5736 35.099 20.25 35.099ZM20.2496 31.134C20.1663 31.134 20.0817 31.1161 20.0012 31.0784L18.7627 30.4976C18.5503 30.3981 18.4256 30.1874 18.4253 29.9676C18.4252 29.884 18.4431 29.7991 18.4809 29.7184C18.6183 29.4253 18.9671 29.2992 19.2602 29.4366L20.4987 30.0174C20.711 30.117 20.8357 30.3277 20.836 30.5475C20.8361 30.6311 20.8182 30.716 20.7805 30.7966C20.6808 31.0093 20.4698 31.134 20.2496 31.134ZM20.2496 27.8527C20.1663 27.8527 20.0817 27.8349 20.0012 27.7972L18.7627 27.2164C18.4696 27.079 18.3435 26.7301 18.4809 26.4371C18.6183 26.144 18.9671 26.018 19.2602 26.1553L20.4987 26.7361C20.7917 26.8735 20.9178 27.2224 20.7805 27.5154C20.6808 27.7281 20.4698 27.8527 20.2496 27.8527ZM20.2496 24.5715C20.1663 24.5715 20.0817 24.5536 20.0012 24.516L18.7627 23.9352C18.4696 23.7978 18.3435 23.4489 18.4809 23.1559C18.6183 22.8628 18.9671 22.7368 19.2602 22.8741L20.4987 23.4549C20.7917 23.5923 20.9178 23.9412 20.7805 24.2342C20.6808 24.4468 20.4698 24.5715 20.2496 24.5715ZM24.374 21.5223C24.1538 21.5223 23.9428 21.3976 23.8431 21.185C23.7057 20.892 23.8318 20.5431 24.1249 20.4057C28.2474 18.4728 30.4814 16.3174 30.4814 10.4727C30.4814 10.2454 30.6129 10.0387 30.8186 9.94217L32.8314 8.99842C33.1242 8.86108 33.4732 8.9871 33.6107 9.28022C33.748 9.57318 33.6219 9.92209 33.3289 10.0595L31.6504 10.8465C31.6051 13.6893 31.0367 15.8067 29.8716 17.4871C28.793 19.0429 27.1742 20.2703 24.6224 21.4667C24.5419 21.5044 24.4573 21.5223 24.374 21.5223ZM16.126 21.5223C16.0427 21.5223 15.9581 21.5044 15.8776 21.4668C13.3258 20.2704 11.7069 19.043 10.6284 17.4872C9.99812 16.5781 9.54243 15.5411 9.24977 14.3307L7.66861 15.072C7.37565 15.2094 7.02682 15.0832 6.88932 14.7902C6.75198 14.4972 6.87807 14.1483 7.17112 14.0109L9.02259 13.1428C8.9979 12.9721 8.97571 12.7983 8.95626 12.6212H6.89713C6.57346 12.6212 6.3112 12.3589 6.3112 12.0353C6.3112 11.7116 6.57346 11.4493 6.89713 11.4493H8.86759C8.85884 11.2522 8.8529 11.0511 8.8497 10.8465L7.17119 10.0596C6.87815 9.92217 6.75206 9.57326 6.8894 9.2803C7.0269 8.98717 7.37572 8.86116 7.66869 8.9985L9.68149 9.94225C9.88727 10.0387 10.0187 10.2455 10.0187 10.4728C10.0187 16.3174 12.2527 18.4728 16.3752 20.4058C16.6682 20.5432 16.7943 20.8921 16.657 21.1851C16.5571 21.3976 16.3461 21.5223 16.126 21.5223ZM6.74651 21.5223C6.47604 21.5223 6.233 21.334 6.17417 21.0588L4.43286 12.9186L0.587342 11.1155C0.294298 10.9781 0.168205 10.6292 0.305548 10.3362C0.442968 10.0431 0.791794 9.91709 1.08484 10.0544L5.19379 11.981C5.35972 12.0588 5.47972 12.2098 5.518 12.389L7.3201 20.8137C7.38776 21.1301 7.18612 21.4415 6.86963 21.5092C6.82838 21.518 6.78714 21.5223 6.74651 21.5223ZM20.2496 21.2903C20.1663 21.2903 20.0817 21.2724 20.0012 21.2347L18.7627 20.654C18.4696 20.5165 18.3435 20.1676 18.4809 19.8747C18.6183 19.5816 18.9671 19.4555 19.2602 19.5929L20.4987 20.1737C20.7917 20.3111 20.9178 20.66 20.7805 20.953C20.6808 21.1656 20.4698 21.2903 20.2496 21.2903ZM20.25 19.0189C19.9263 19.0189 19.6641 18.7566 19.6641 18.433V17.6391L18.7627 17.2166C18.4697 17.0791 18.3436 16.7302 18.4809 16.4373C18.6184 16.1442 18.9672 16.0181 19.2602 16.1555L19.6641 16.3449V14.2017L18.7628 13.7791C18.4698 13.6417 18.3437 13.2928 18.481 12.9998C18.6184 12.7068 18.9673 12.5806 19.2603 12.718L19.6642 12.9074V12.0353C19.6642 11.7116 19.9265 11.4493 20.2501 11.4493C20.5738 11.4493 20.8361 11.7116 20.8361 12.0353V18.433C20.8359 18.7566 20.5736 19.0189 20.25 19.0189ZM17.4371 18.8684C17.3538 18.8684 17.2692 18.8505 17.1887 18.8129L15.9502 18.2321C15.6571 18.0947 15.531 17.7458 15.6684 17.4528C15.8058 17.1597 16.1546 17.0336 16.4477 17.171L17.6863 17.7518C17.9792 17.8892 18.1053 18.2381 17.968 18.5311C17.8684 18.7437 17.6573 18.8684 17.4371 18.8684ZM14.6246 16.4466C14.5414 16.4466 14.4568 16.4287 14.3762 16.391L13.1377 15.8103C12.8447 15.6728 12.7186 15.3239 12.8559 15.031C12.9933 14.7378 13.3422 14.6117 13.6352 14.7492L14.8738 15.3299C15.1668 15.4674 15.2928 15.8163 15.1555 16.1092C15.0559 16.3219 14.8448 16.4466 14.6246 16.4466ZM17.4371 15.431C17.3538 15.431 17.2692 15.4131 17.1887 15.3754L15.9502 14.7946C15.6571 14.6572 15.531 14.3083 15.6684 14.0153C15.8058 13.7222 16.1546 13.5962 16.4477 13.7335L17.6863 14.3143C17.9792 14.4517 18.1053 14.8006 17.968 15.0936C17.8684 15.3063 17.6573 15.431 17.4371 15.431ZM14.6246 13.0091C14.5414 13.0091 14.4568 12.9912 14.3762 12.9536L13.1377 12.3728C12.8447 12.2354 12.7186 11.8865 12.8559 11.5935C12.9933 11.3004 13.3422 11.1742 13.6352 11.3117L14.8738 11.8925C15.1668 12.0299 15.2928 12.3788 15.1555 12.6718C15.0559 12.8844 14.8448 13.0091 14.6246 13.0091ZM17.4371 11.9935C17.3538 11.9935 17.2692 11.9756 17.1887 11.9379L15.9502 11.3572C15.6571 11.2197 15.531 10.8708 15.6684 10.5779C15.8058 10.2847 16.1546 10.1587 16.4477 10.2961L17.6863 10.8768C17.9792 11.0143 18.1053 11.3632 17.968 11.6561C17.8684 11.8688 17.6573 11.9935 17.4371 11.9935ZM23.0629 8.956C22.8426 8.956 22.6316 8.83124 22.5319 8.61866C22.3946 8.32569 22.5207 7.97679 22.8137 7.83937L25.3053 6.67117C24.9659 6.22508 24.7752 5.67438 24.7752 5.09939V0.586138C24.7752 0.262468 25.0375 0.000204035 25.3611 0.000204035C25.6848 0.000204035 25.9471 0.262468 25.9471 0.586138V5.09947C25.9471 5.35571 26.0161 5.60313 26.1419 5.81813C27.1839 3.6908 29.1117 2.11425 31.4414 1.52637C31.7553 1.44715 32.0736 1.63738 32.1529 1.95121C32.232 2.26503 32.0418 2.58355 31.728 2.66269C29.4887 3.22768 27.6836 4.85978 26.8994 7.02859C26.8466 7.17469 26.7378 7.2939 26.5971 7.35984L23.3111 8.90053C23.2307 8.93819 23.1461 8.956 23.0629 8.956ZM17.4371 8.956C17.3538 8.956 17.2692 8.93811 17.1888 8.90046L13.9027 7.35976C13.762 7.29375 13.6532 7.17461 13.6004 7.02852C12.3008 3.4344 8.31962 1.56793 4.72551 2.86729C4.57926 2.92011 4.41809 2.91276 4.27755 2.84682L0.587342 1.11668C0.294298 0.97926 0.168205 0.630356 0.305548 0.337389C0.442968 0.0442662 0.791794 -0.0818266 1.08484 0.0555943L4.56004 1.68504C8.41923 0.419342 12.6008 2.22644 14.3582 5.81782C14.4839 5.6029 14.5529 5.35556 14.5529 5.09939V0.586138C14.5529 0.262468 14.8152 0.000204035 15.1389 0.000204035C15.4625 0.000204035 15.7248 0.262468 15.7248 0.586138V5.09947C15.7248 5.67446 15.5341 6.22516 15.1946 6.67125L17.6863 7.83945C17.9793 7.97687 18.1054 8.32577 17.9681 8.61874C17.8684 8.83132 17.6573 8.956 17.4371 8.956ZM35.9737 2.90229C35.9064 2.90229 35.8389 2.89073 35.7744 2.86737C35.1564 2.64394 34.5141 2.50917 33.8653 2.46691C33.5423 2.44581 33.2975 2.16699 33.3186 1.8441C33.3397 1.52105 33.6207 1.27621 33.9414 1.29746C34.6191 1.3416 35.2902 1.47183 35.9399 1.68504L39.4151 0.0555943C39.7081 -0.0818266 40.0569 0.0443444 40.1944 0.337389C40.3318 0.630356 40.2057 0.97926 39.9126 1.11668L36.2224 2.8469C36.1438 2.88378 36.0588 2.90229 35.9737 2.90229Z" fill="#156778"/>
</svg>
