<svg width="41" height="36" viewBox="0 0 41 36" fill="none" xmlns="http://www.w3.org/2000/svg">
<path d="M7.67105 35.8387H1.33617C1.01237 35.8387 0.75 35.5764 0.75 35.2526C0.75 34.9288 1.01237 34.6664 1.33617 34.6664H7.67105C11.5181 34.6664 14.4334 34.2117 16.5835 33.2763C18.3949 32.4882 19.712 31.3617 20.6682 29.769H13.6963C11.4538 29.769 9.70499 27.8644 9.4742 25.2625H1.33617C1.01237 25.2625 0.75 25.0001 0.75 24.6763C0.75 24.3525 1.01237 24.0901 1.33617 24.0901H10.0345C12.8782 24.0901 15.3688 23.0885 17.237 21.1933L21.5614 16.7968L19.0104 14.2286C18.8739 14.0911 18.8141 13.895 18.8507 13.7048C18.8873 13.5145 19.0156 13.3546 19.1934 13.2776C19.7409 13.0405 20.2595 12.8181 20.7535 12.6061C23.0159 11.6357 24.803 10.869 26.4506 9.93875C26.7325 9.77986 27.0902 9.87912 27.2493 10.161C27.4084 10.4429 27.309 10.8005 27.027 10.9597C25.3239 11.9213 23.511 12.699 21.2158 13.6836C20.9665 13.7905 20.711 13.9002 20.4487 14.013L26.8684 20.4762C29.6143 14.1653 31.1151 11.2071 36.1084 6.21374L39.2844 3.03778C39.4853 2.83684 39.5918 2.55876 39.5764 2.27474C39.5608 1.98697 39.4269 1.72765 39.1992 1.54445C38.8091 1.23073 38.2103 1.27825 37.8359 1.6527L34.66 4.82866C32.4943 6.99429 30.7791 8.48332 29.0984 9.65676C28.8328 9.84223 28.4674 9.7772 28.2822 9.51178C28.0969 9.24636 28.1618 8.8809 28.4272 8.69559C30.0494 7.56303 31.7159 6.1148 33.8309 3.99973L37.0067 0.823536C37.8116 0.018839 39.07 -0.0639286 39.9337 0.630881C40.4172 1.01971 40.7136 1.5958 40.7468 2.21136C40.7801 2.82731 40.5492 3.43067 40.1133 3.86663L36.9371 7.04267C31.8912 12.0887 30.5093 15.0165 27.5997 21.7357C27.5224 21.9141 27.3616 22.0427 27.1705 22.0788C26.9796 22.1146 26.7828 22.0538 26.6458 21.9158L24.0397 19.292C23.3497 19.9912 21.6783 21.6816 19.7047 23.6553C19.5549 23.8049 19.41 23.9499 19.2697 24.0901H23.9004C24.6375 24.0901 25.2373 24.6892 25.2376 25.4255C25.2379 26.5123 24.9494 27.5347 24.4253 28.3046C23.8437 29.1587 23.017 29.6538 22.019 29.7512C19.8189 34.0135 15.4986 35.8387 7.67105 35.8387ZM10.6528 25.2472C10.8462 26.951 11.9068 28.5966 13.6962 28.5966H21.6352C21.643 28.5965 21.6509 28.5965 21.6588 28.5966C22.4237 28.5934 23.0283 28.2731 23.4563 27.6447C23.8436 27.0758 24.0656 26.2671 24.0653 25.4257C24.0653 25.3357 23.9913 25.2623 23.9004 25.2623H18.0966C16.6249 26.7322 15.9372 27.4161 15.9283 27.4248C15.6988 27.6532 15.3276 27.6521 15.0994 27.4225C14.8711 27.1928 14.8722 26.8217 15.1018 26.5935C15.1128 26.5826 16.1658 25.5355 18.4612 23.2406L17.6457 22.425C15.7676 24.1286 13.3227 25.1153 10.6528 25.2472ZM18.48 21.6014L19.2902 22.4116C21.0869 20.6124 22.5783 19.1039 23.2136 18.4601L22.3876 17.6285L18.48 21.6014Z" fill="#156778"/>
</svg>
