<svg width="41" height="40" viewBox="0 0 41 40" fill="none" xmlns="http://www.w3.org/2000/svg">
<path d="M28.1607 39.4006C25.0476 39.4006 21.9693 38.8312 19.0112 37.7082C16.1865 36.6359 13.248 36.0921 10.2775 36.0921C7.30709 36.0921 4.36859 36.6358 1.54392 37.7082C1.36369 37.7767 1.16165 37.7521 1.00313 37.6427C0.84469 37.5333 0.75 37.353 0.75 37.1604V22.0123C0.75 21.7689 0.900472 21.5508 1.12798 21.4644C6.48973 19.4289 12.2102 19.2224 17.6709 20.8672C17.9808 20.9604 18.1563 21.2873 18.063 21.5972C17.9697 21.907 17.6428 22.0824 17.3329 21.9892C12.25 20.4583 6.93005 20.6085 1.92182 22.42V36.3255C4.63508 35.3927 7.44194 34.9202 10.2775 34.9202C13.3906 34.9202 16.4689 35.4896 19.427 36.6126C22.2518 37.6849 25.1903 38.2287 28.1607 38.2287C30.999 38.2287 33.8077 37.7324 36.5163 36.7527V22.8471C33.8565 23.7616 31.1055 24.2338 28.3262 24.2518C25.2712 24.2725 22.2438 23.7425 19.3299 22.6787C19.0259 22.5677 18.8694 22.2313 18.9805 21.9273C19.0914 21.6234 19.4274 21.4669 19.7318 21.5778C22.5141 22.5935 25.4026 23.0987 28.3186 23.0799C31.2353 23.0609 34.1206 22.5174 36.8943 21.4644C37.0746 21.396 37.2766 21.4205 37.4351 21.5299C37.5935 21.6393 37.6882 21.8196 37.6882 22.0122V37.1603C37.6882 37.4037 37.5377 37.6217 37.3102 37.7081C34.3522 38.8312 31.2739 39.4006 28.1607 39.4006ZM25.7397 35.2999C25.4298 35.2999 25.1136 35.2895 24.7918 35.2684C22.7554 35.1351 20.81 34.4848 19.0111 33.8019C17.2212 33.1224 15.3704 32.4198 13.5295 32.1707L13.0285 32.1033C11.077 31.8414 9.39151 31.6152 8.16321 31.1358C6.67075 30.5534 5.94527 29.6121 5.94527 28.2581C5.94527 27.2489 6.35629 26.3306 7.13381 25.6023C8.48103 24.3404 10.8544 23.7211 13.6464 23.9043C15.6826 24.0375 17.6281 24.6879 19.427 25.3708C21.2168 26.0502 23.0676 26.7528 24.9087 27.002C25.2294 27.0453 25.4541 27.3405 25.4108 27.6612C25.3674 27.9818 25.0732 28.2069 24.7516 28.1633C22.7773 27.8961 20.8628 27.1693 19.0111 26.4663C17.2974 25.8158 15.452 25.1968 13.5699 25.0736C11.1003 24.9119 9.04651 25.4164 7.935 26.4575C7.39233 26.9658 7.11717 27.5716 7.11717 28.258C7.11717 30.0443 9.1976 30.4067 13.1844 30.9417L13.6867 31.0093C15.6608 31.2764 17.5754 32.0033 19.4271 32.7062C21.1407 33.3567 22.986 33.9757 24.8684 34.0989C27.338 34.2607 29.3916 33.7561 30.5032 32.715C31.0459 32.2067 31.321 31.6008 31.321 30.9144C31.321 29.5829 30.2359 28.968 27.0208 28.478C26.7009 28.4293 26.4811 28.1304 26.5299 27.8105C26.5786 27.4905 26.8784 27.2711 27.1974 27.3195C29.8769 27.7279 32.4929 28.3419 32.4929 30.9144C32.4929 31.9236 32.0819 32.8419 31.3043 33.5703C30.1125 34.6868 28.1171 35.2999 25.7397 35.2999ZM19.5263 19.5666C19.5248 19.5666 19.5232 19.5666 19.5216 19.5666C19.1993 19.564 18.9398 19.3017 18.9403 18.9798C18.9403 18.9785 18.9403 18.9773 18.9403 18.976L18.9884 12.8824C19.0146 12.3533 18.8529 12.0658 18.2864 11.7493L16.0789 10.5155C13.539 9.09605 12.5856 5.88864 13.9534 3.36554C14.6313 2.1152 15.7564 1.20862 17.1215 0.812826C18.4871 0.417036 19.9221 0.580946 21.1629 1.2744C22.3972 1.96426 23.1639 3.27108 23.1639 4.6851V5.07776L31.2082 9.57356C31.4906 9.73145 31.5916 10.0884 31.4338 10.3709C31.2759 10.6533 30.9189 10.7544 30.6364 10.5966L23.1639 6.42029V10.4478C28.7018 13.5429 36.5744 17.9427 36.963 18.1598C37.8089 18.6327 38.8822 18.329 39.355 17.483C39.8279 16.6368 39.5243 15.5638 38.6782 15.0909L32.6063 11.6974C32.3239 11.5395 32.2229 11.1826 32.3807 10.9001C32.5385 10.6176 32.8954 10.5166 33.178 10.6744L39.2498 14.0678C40.6601 14.856 41.1661 16.6444 40.378 18.0546C39.5897 19.4647 37.8013 19.9708 36.3912 19.1827C35.9988 18.9634 27.9704 14.4764 22.4252 11.3773H21.6864C20.8843 11.3773 20.1601 12.0674 20.1601 12.9064L20.1121 18.9852C20.1096 19.3073 19.8478 19.5666 19.5263 19.5666ZM18.5968 1.77402C18.2131 1.77402 17.827 1.82839 17.4479 1.9384C16.3862 2.24622 15.511 2.95139 14.9837 3.92414C13.9199 5.88637 14.6677 8.38432 16.6507 9.49254L18.8582 10.7263C19.1372 10.8823 19.3709 11.0557 19.5598 11.2478C19.8504 10.8758 20.236 10.5813 20.6793 10.4015C18.7431 9.31942 17.3782 8.55666 17.2221 8.4694C16.539 8.08767 16.0454 7.46266 15.8324 6.70967C15.6193 5.95669 15.7122 5.16573 16.094 4.48267C16.8822 3.07248 18.6708 2.56638 20.0808 3.3546L20.644 3.66937C20.9264 3.82727 21.0275 4.18423 20.8696 4.46673C20.7118 4.74924 20.3548 4.85033 20.0723 4.69236L19.5092 4.37767C18.6631 3.90477 17.59 4.20837 17.117 5.05448C16.8879 5.46433 16.8321 5.93887 16.96 6.39068C17.0879 6.84249 17.384 7.21749 17.794 7.44656C17.9694 7.54461 19.6695 8.49479 21.9921 9.79286V4.6851C21.9921 3.69523 21.4554 2.78029 20.5912 2.29739C19.9707 1.95058 19.2876 1.77402 18.5968 1.77402Z" fill="#156778"/>
</svg>
